<svg width="67" height="55" viewBox="0 0 67 55" fill="none" xmlns="http://www.w3.org/2000/svg">
<g clip-path="url(#clip0_3349_9406)">
<path d="M65.3377 26.7136C65.2655 25.8189 65.1945 24.9241 65.1246 24.0296C64.9987 22.3889 64.8747 20.748 64.7523 19.107C64.5167 15.967 64.273 12.7201 64.0152 9.52798C63.88 7.36486 62.9375 5.33227 61.3756 3.83535C59.4744 2.00491 57.04 1.14246 53.9322 1.19803C47.1054 1.32035 39.0239 1.4675 30.842 1.62838C29.3962 1.6567 27.9269 1.70529 26.5067 1.75215C25.708 1.77834 24.9087 1.80351 24.1088 1.82786C22.9625 1.86098 21.816 1.8904 20.6694 1.91615C18.0914 1.9785 15.4274 2.04224 12.8084 2.17056C10.4842 2.28442 8.57114 2.81357 6.96036 3.78865C3.64297 5.79675 1.92923 8.6338 1.86907 12.221C1.83642 14.1757 1.86435 16.1636 1.89169 18.0852L1.90057 18.7206C1.93171 20.9999 1.96635 23.2791 2.00451 25.5582C2.06994 29.6596 2.13768 33.9009 2.17235 38.0721C2.19366 40.6248 2.41095 43.6157 3.86268 46.4426C5.10598 48.8637 6.68658 50.4128 8.83729 51.317C10.7441 52.1012 12.7418 52.6409 14.7831 52.9232C18.3687 53.4571 22.0301 53.4206 25.5708 53.3851L25.8606 53.3823C26.4544 53.3764 27.0623 53.4055 27.6499 53.4334C27.9266 53.4466 28.2035 53.4597 28.4801 53.4696L28.4955 53.4691L52.5549 52.751C52.5638 52.7508 52.5727 52.75 52.5818 52.7486C53.0155 52.6862 53.4501 52.6304 53.8846 52.5743C54.8246 52.4535 55.7968 52.3289 56.743 52.1359C61.7963 51.1068 65.0908 47.6569 65.5558 42.9075C65.929 38.9025 65.9633 34.8731 65.6579 30.8621C65.5617 29.4785 65.448 28.073 65.3377 26.7136ZM61.6504 30.8725C61.7283 34.7799 61.6203 38.7211 61.4927 42.7512C61.3787 46.3626 58.3122 48.0087 55.7207 48.3207C54.6831 48.4458 53.6411 48.5261 52.6236 48.56L48.1067 48.7113C40.7585 48.9577 33.1601 49.2137 25.6863 49.4196C21.4513 49.5364 17.3163 49.5661 13.2936 48.6563C12.0636 48.3882 10.8683 47.9794 9.73119 47.4378C8.45361 46.8152 7.51399 45.6745 6.85955 43.9506C5.96549 41.5297 5.47865 38.9762 5.41892 36.395C5.2972 33.103 5.25653 29.7514 5.21584 26.5103L5.18715 24.2928C5.13818 20.6955 5.08766 16.9749 5.09814 13.3186C5.11016 9.12458 7.38829 6.39321 11.5127 5.62746C13.6656 5.2331 15.8454 5.00446 18.0331 4.94331C18.1125 4.94094 18.1922 4.93856 18.2716 4.93619C22.152 4.84038 26.1002 4.8202 29.9183 4.80039C31.4883 4.79228 33.058 4.78274 34.6276 4.77167C34.6914 4.77073 34.7523 4.74474 34.7974 4.69923C34.807 4.68958 34.8156 4.67917 34.8232 4.66812C36.4746 4.66026 38.1262 4.65206 39.7775 4.64359C44.4373 4.61985 49.2554 4.59612 53.9942 4.59026C55.3984 4.5886 56.8744 4.72548 58.1564 5.73097C59.4235 6.72584 60.0647 7.81833 60.1738 9.16932L60.2482 10.0919C60.5133 13.364 60.787 16.748 61.0182 20.0779C61.0694 20.8189 61.1229 21.5602 61.1783 22.3014C61.3811 25.1121 61.5933 28.0167 61.6504 30.873L61.6504 30.8725Z" fill="#FC787D"/>
<path d="M42.5065 23.5989C41.5045 22.8256 40.4803 22.072 39.6107 21.437L38.5775 20.6823C35.8622 18.6989 33.0545 16.6474 30.2755 14.6532C29.7903 14.3299 29.2602 14.0799 28.7026 13.9113C27.7153 13.5822 26.7563 13.9224 26.3143 14.7595C25.6979 15.9275 25.3872 16.9181 25.3643 17.7872C25.3049 20.0415 25.348 22.3335 25.3898 24.5497C25.4046 25.3459 25.4197 26.1428 25.4299 26.9388C25.3887 26.9582 25.3538 26.9891 25.3294 27.0278C25.3047 27.0662 25.2917 27.111 25.2915 27.1567L25.2826 29.3669C25.2743 31.4754 25.2642 33.5839 25.2524 35.6927C25.2466 36.5964 25.5604 37.1948 26.2116 37.5223C26.4789 37.6603 26.7764 37.7286 27.0769 37.7213C27.5067 37.6958 27.9202 37.5467 28.2677 37.2917C29.5657 36.4074 30.8642 35.5238 32.1637 34.6409C35.5428 32.3431 39.0369 29.9674 42.4611 27.6096C43.2758 27.0483 43.7165 26.3798 43.7351 25.6759C43.7538 24.9517 43.3292 24.2339 42.5065 23.5989ZM38.6832 25.7485L28.655 32.7523L28.492 18.5004C30.6097 19.846 32.599 21.3137 34.6967 22.8626C35.9862 23.813 37.3155 24.7941 38.6832 25.7485Z" fill="#FC787D"/>
</g>
<defs>
<clipPath id="clip0_3349_9406">
<rect width="64" height="52" fill="white" transform="translate(0.997559 2.4375) rotate(-1.70966)"/>
</clipPath>
</defs>
</svg>
