<svg xmlns="http://www.w3.org/2000/svg" width="133" height="20" viewBox="0 0 133 20" fill="none"><path d="M15.8907 18.7503C15.7591 18.7508 15.6308 18.7098 15.5239 18.6331L10.5001 14.9909L5.47624 18.6331C5.36891 18.7109 5.2396 18.7526 5.10701 18.7522C4.97442 18.7517 4.84542 18.709 4.73866 18.6304C4.6319 18.5518 4.55291 18.4413 4.51311 18.3148C4.47331 18.1883 4.47476 18.0524 4.51725 17.9269L6.47663 12.1233L1.3985 8.64092C1.28851 8.56557 1.20549 8.45702 1.16158 8.33113C1.11767 8.20524 1.11516 8.06861 1.15444 7.9412C1.19371 7.81379 1.27269 7.70227 1.37986 7.62294C1.48702 7.54362 1.61674 7.50064 1.75007 7.50029H8.01491L9.90554 1.68193C9.94626 1.55632 10.0257 1.44683 10.1325 1.36917C10.2394 1.29152 10.368 1.24969 10.5001 1.24969C10.6321 1.24969 10.7608 1.29152 10.8676 1.36917C10.9744 1.44683 11.0539 1.55632 11.0946 1.68193L12.9852 7.50224H19.2501C19.3836 7.50218 19.5136 7.54486 19.621 7.62403C19.7285 7.7032 19.8078 7.81471 19.8474 7.94222C19.8869 8.06973 19.8845 8.20654 19.8407 8.33262C19.7968 8.4587 19.7137 8.56743 19.6036 8.64287L14.5235 12.1233L16.4817 17.9253C16.5134 18.0192 16.5224 18.1194 16.5077 18.2174C16.4931 18.3155 16.4554 18.4087 16.3976 18.4893C16.3399 18.5699 16.2638 18.6356 16.1757 18.681C16.0875 18.7263 15.9898 18.7501 15.8907 18.7503Z" fill="#FFCB00"></path><path d="M43.8907 18.7503C43.7591 18.7508 43.6308 18.7098 43.5239 18.6331L38.5001 14.9909L33.4762 18.6331C33.3689 18.7109 33.2396 18.7526 33.107 18.7522C32.9744 18.7517 32.8454 18.709 32.7387 18.6304C32.6319 18.5518 32.5529 18.4413 32.5131 18.3148C32.4733 18.1883 32.4748 18.0524 32.5173 17.9269L34.4766 12.1233L29.3985 8.64092C29.2885 8.56557 29.2055 8.45702 29.1616 8.33113C29.1177 8.20524 29.1152 8.06861 29.1544 7.9412C29.1937 7.81379 29.2727 7.70227 29.3799 7.62294C29.487 7.54362 29.6167 7.50064 29.7501 7.50029H36.0149L37.9055 1.68193C37.9463 1.55632 38.0257 1.44683 38.1325 1.36917C38.2394 1.29152 38.368 1.24969 38.5001 1.24969C38.6321 1.24969 38.7608 1.29152 38.8676 1.36917C38.9744 1.44683 39.0539 1.55632 39.0946 1.68193L40.9852 7.50224H47.2501C47.3836 7.50218 47.5136 7.54486 47.621 7.62403C47.7285 7.7032 47.8078 7.81471 47.8474 7.94222C47.8869 8.06973 47.8845 8.20654 47.8407 8.33262C47.7968 8.4587 47.7137 8.56743 47.6036 8.64287L42.5235 12.1233L44.4817 17.9253C44.5134 18.0192 44.5224 18.1194 44.5077 18.2174C44.4931 18.3155 44.4554 18.4087 44.3976 18.4893C44.3399 18.5699 44.2638 18.6356 44.1757 18.681C44.0875 18.7263 43.9898 18.7501 43.8907 18.7503Z" fill="#FFCB00"></path><path d="M71.8907 18.7503C71.7591 18.7508 71.6308 18.7098 71.5239 18.6331L66.5001 14.9909L61.4762 18.6331C61.3689 18.7109 61.2396 18.7526 61.107 18.7522C60.9744 18.7517 60.8454 18.709 60.7387 18.6304C60.6319 18.5518 60.5529 18.4413 60.5131 18.3148C60.4733 18.1883 60.4748 18.0524 60.5173 17.9269L62.4766 12.1233L57.3985 8.64092C57.2885 8.56557 57.2055 8.45702 57.1616 8.33113C57.1177 8.20524 57.1152 8.06861 57.1544 7.9412C57.1937 7.81379 57.2727 7.70227 57.3799 7.62294C57.487 7.54362 57.6167 7.50064 57.7501 7.50029H64.0149L65.9055 1.68193C65.9463 1.55632 66.0257 1.44683 66.1325 1.36917C66.2394 1.29152 66.368 1.24969 66.5001 1.24969C66.6321 1.24969 66.7608 1.29152 66.8676 1.36917C66.9744 1.44683 67.0539 1.55632 67.0946 1.68193L68.9852 7.50224H75.2501C75.3836 7.50218 75.5136 7.54486 75.621 7.62403C75.7285 7.7032 75.8078 7.81471 75.8474 7.94222C75.8869 8.06973 75.8845 8.20654 75.8407 8.33262C75.7968 8.4587 75.7137 8.56743 75.6036 8.64287L70.5235 12.1233L72.4817 17.9253C72.5134 18.0192 72.5224 18.1194 72.5077 18.2174C72.4931 18.3155 72.4554 18.4087 72.3976 18.4893C72.3399 18.5699 72.2638 18.6356 72.1757 18.681C72.0875 18.7263 71.9898 18.7501 71.8907 18.7503Z" fill="#FFCB00"></path><path d="M99.8907 18.7503C99.7591 18.7508 99.6308 18.7098 99.5239 18.6331L94.5001 14.9909L89.4762 18.6331C89.3689 18.7109 89.2396 18.7526 89.107 18.7522C88.9744 18.7517 88.8454 18.709 88.7387 18.6304C88.6319 18.5518 88.5529 18.4413 88.5131 18.3148C88.4733 18.1883 88.4748 18.0524 88.5173 17.9269L90.4766 12.1233L85.3985 8.64092C85.2885 8.56557 85.2055 8.45702 85.1616 8.33113C85.1177 8.20524 85.1152 8.06861 85.1544 7.9412C85.1937 7.81379 85.2727 7.70227 85.3799 7.62294C85.487 7.54362 85.6167 7.50064 85.7501 7.50029H92.0149L93.9055 1.68193C93.9463 1.55632 94.0257 1.44683 94.1325 1.36917C94.2394 1.29152 94.368 1.24969 94.5001 1.24969C94.6321 1.24969 94.7608 1.29152 94.8676 1.36917C94.9744 1.44683 95.0539 1.55632 95.0946 1.68193L96.9852 7.50224H103.25C103.384 7.50218 103.514 7.54486 103.621 7.62403C103.729 7.7032 103.808 7.81471 103.847 7.94222C103.887 8.06973 103.885 8.20654 103.841 8.33262C103.797 8.4587 103.714 8.56743 103.604 8.64287L98.5235 12.1233L100.482 17.9253C100.513 18.0192 100.522 18.1194 100.508 18.2174C100.493 18.3155 100.455 18.4087 100.398 18.4893C100.34 18.5699 100.264 18.6356 100.176 18.681C100.088 18.7263 99.9898 18.7501 99.8907 18.7503Z" fill="#FFCB00"></path><path d="M127.891 18.7503C127.759 18.7508 127.631 18.7098 127.524 18.6331L122.5 14.9909L117.476 18.6331C117.369 18.7109 117.24 18.7526 117.107 18.7522C116.974 18.7517 116.845 18.709 116.739 18.6304C116.632 18.5518 116.553 18.4413 116.513 18.3148C116.473 18.1883 116.475 18.0524 116.517 17.9269L118.477 12.1233L113.399 8.64092C113.289 8.56557 113.205 8.45702 113.162 8.33113C113.118 8.20524 113.115 8.06861 113.154 7.9412C113.194 7.81379 113.273 7.70227 113.38 7.62294C113.487 7.54362 113.617 7.50064 113.75 7.50029H120.015L121.906 1.68193C121.946 1.55632 122.026 1.44683 122.133 1.36917C122.239 1.29152 122.368 1.24969 122.5 1.24969C122.632 1.24969 122.761 1.29152 122.868 1.36917C122.974 1.44683 123.054 1.55632 123.095 1.68193L124.985 7.50224H131.25C131.384 7.50218 131.514 7.54486 131.621 7.62403C131.729 7.7032 131.808 7.81471 131.847 7.94222C131.887 8.06973 131.885 8.20654 131.841 8.33262C131.797 8.4587 131.714 8.56743 131.604 8.64287L126.524 12.1233L128.482 17.9253C128.513 18.0192 128.522 18.1194 128.508 18.2174C128.493 18.3155 128.455 18.4087 128.398 18.4893C128.34 18.5699 128.264 18.6356 128.176 18.681C128.088 18.7263 127.99 18.7501 127.891 18.7503Z" fill="#FFCB00"></path></svg>