<?xml version="1.0" encoding="utf-8"?>
<svg xmlns="http://www.w3.org/2000/svg" width="568" height="469" viewBox="0 0 568 469" fill="none">
<rect opacity="0.8" x="74" y="63" width="463.875" height="403.985" rx="18.6863" fill="#817AE3" fill-opacity="0.1"/>
<g filter="url(#filter0_dd_12115_2953)">
<rect x="146" y="310" width="414" height="118" rx="26.4415" fill="white"/>
<rect x="146.661" y="310.661" width="412.678" height="116.678" rx="25.7804" stroke="#F9FBFF" stroke-width="1.32207"/>
<g clip-path="url(#clip0_12115_2953)">
<path d="M224.5 407C245.211 407 262 390.211 262 369.5C262 348.789 245.211 332 224.5 332C203.789 332 187 348.789 187 369.5C187 390.211 203.789 407 224.5 407Z" fill="#2CA01C"/>
<path d="M197.417 369.5C197.417 373.368 198.953 377.077 201.688 379.812C204.423 382.547 208.132 384.083 212 384.083H214.083V378.666H212C210.79 378.676 209.59 378.446 208.47 377.99C207.349 377.533 206.33 376.86 205.471 376.008C204.612 375.155 203.93 374.142 203.465 373.025C203 371.908 202.76 370.71 202.76 369.5C202.76 368.29 203 367.092 203.465 365.975C203.93 364.858 204.612 363.844 205.471 362.992C206.33 362.14 207.349 361.466 208.47 361.01C209.59 360.553 210.79 360.323 212 360.333H217V388.667C217.001 390.103 217.571 391.481 218.587 392.496C219.603 393.512 220.98 394.083 222.416 394.084V354.917H212C210.085 354.917 208.189 355.294 206.419 356.027C204.65 356.759 203.042 357.834 201.688 359.188C200.334 360.542 199.259 362.15 198.526 363.919C197.793 365.688 197.417 367.585 197.417 369.5ZM237 354.917H234.917V360.334H237C239.413 360.361 241.718 361.339 243.415 363.055C245.112 364.771 246.063 367.087 246.063 369.5C246.063 371.913 245.112 374.229 243.415 375.945C241.718 377.661 239.413 378.639 237 378.666H232V350.334C232 349.623 231.86 348.918 231.588 348.261C231.316 347.604 230.917 347.007 230.414 346.504C229.911 346.001 229.314 345.602 228.657 345.329C227.999 345.057 227.295 344.917 226.584 344.917V384.084H237C240.868 384.084 244.577 382.548 247.312 379.813C250.047 377.078 251.583 373.368 251.583 369.501C251.583 365.633 250.047 361.923 247.312 359.189C244.577 356.454 240.868 354.917 237 354.917Z" fill="white"/>
</g>
<g clip-path="url(#clip1_12115_2953)">
<mask id="mask0_12115_2953" style="mask-type:luminance" maskUnits="userSpaceOnUse" x="299" y="315" width="109" height="109">
<path d="M299.494 315.407H407.574V423.486H299.494V315.407Z" fill="white"/>
</mask>
<g mask="url(#mask0_12115_2953)">
<path d="M353.5 406.857C374.132 406.857 390.857 390.132 390.857 369.5C390.857 348.868 374.132 332.143 353.5 332.143C332.868 332.143 316.143 348.868 316.143 369.5C316.143 390.132 332.868 406.857 353.5 406.857Z" fill="#1AB4D7"/>
<path d="M334.025 369.392L340.401 363.001C340.612 362.786 340.73 362.5 340.73 362.198C340.73 361.567 340.217 361.056 339.587 361.056C339.28 361.056 338.992 361.176 338.775 361.396C338.774 361.397 332.405 367.762 332.405 367.762L326.007 361.386C325.791 361.173 325.505 361.056 325.201 361.056C324.571 361.056 324.059 361.567 324.059 362.197C324.059 362.504 324.181 362.792 324.402 363.01L330.776 369.383L324.405 375.766C324.181 375.987 324.059 376.276 324.059 376.584C324.059 377.214 324.571 377.726 325.201 377.726C325.505 377.726 325.792 377.608 326.007 377.392L332.396 371.013L338.759 377.369C338.985 377.602 339.276 377.726 339.587 377.726C340.217 377.726 340.729 377.214 340.729 376.584C340.729 376.28 340.611 375.994 340.397 375.779L334.025 369.392Z" fill="white"/>
<path d="M371.925 369.39C371.925 370.535 372.856 371.466 374.002 371.466C375.145 371.466 376.076 370.535 376.076 369.39C376.076 368.245 375.145 367.314 374.002 367.314C372.856 367.314 371.925 368.245 371.925 369.39Z" fill="white"/>
<path d="M367.988 369.391C367.988 366.077 370.685 363.38 374 363.38C377.313 363.38 380.01 366.077 380.01 369.391C380.01 372.705 377.313 375.401 374 375.401C370.685 375.401 367.988 372.705 367.988 369.391ZM365.624 369.391C365.624 374.009 369.381 377.766 374 377.766C378.618 377.766 382.378 374.009 382.378 369.391C382.378 364.773 378.618 361.015 374 361.015C369.381 361.015 365.624 364.773 365.624 369.391Z" fill="white"/>
<path d="M365.029 361.158L364.678 361.157C363.623 361.157 362.605 361.49 361.755 362.145C361.643 361.632 361.185 361.246 360.64 361.246C360.012 361.246 359.509 361.75 359.507 362.379C359.507 362.381 359.511 376.486 359.511 376.486C359.513 377.114 360.025 377.625 360.653 377.625C361.281 377.625 361.794 377.114 361.795 376.485C361.795 376.482 361.796 367.811 361.796 367.811C361.796 364.919 362.06 363.752 364.537 363.442C364.766 363.414 365.015 363.418 365.016 363.418C365.693 363.395 366.175 362.929 366.175 362.3C366.175 361.67 365.661 361.158 365.029 361.158Z" fill="white"/>
<path d="M343.096 368.012C343.096 367.981 343.099 367.948 343.1 367.916C343.763 365.295 346.138 363.355 348.965 363.355C351.827 363.355 354.223 365.342 354.852 368.012H343.096ZM357.191 367.796C356.699 365.466 355.423 363.552 353.48 362.322C350.64 360.519 346.89 360.619 344.147 362.57C341.909 364.162 340.617 366.766 340.617 369.448C340.617 370.121 340.699 370.8 340.867 371.468C341.712 374.792 344.57 377.308 347.976 377.725C348.987 377.847 349.971 377.788 350.99 377.525C351.865 377.312 352.713 376.957 353.493 376.456C354.304 375.935 354.98 375.249 355.636 374.426C355.649 374.411 355.663 374.398 355.676 374.382C356.131 373.818 356.046 373.015 355.546 372.632C355.125 372.309 354.417 372.178 353.86 372.891C353.74 373.062 353.606 373.238 353.459 373.413C353.016 373.902 352.467 374.377 351.808 374.744C350.97 375.192 350.016 375.448 349.001 375.454C345.678 375.417 343.9 373.097 343.268 371.442C343.157 371.133 343.072 370.812 343.013 370.482C343.005 370.42 342.999 370.361 342.997 370.306C343.684 370.306 354.92 370.304 354.92 370.304C356.554 370.27 357.434 369.116 357.191 367.796Z" fill="white"/>
</g>
</g>
<circle cx="482.5" cy="368.5" r="37.5" fill="#125580"/>
<path d="M464 359.933H471.989V378.91H475.966V386.326H464V359.933ZM500.978 377.393H492.989V358.416H489.011V351H500.978V377.393Z" fill="white"/>
<path d="M462 349H487.247V370.674L477.539 358.169H462V349ZM502.652 388H477.404V366.326L487.112 378.831H502.652" fill="white"/>
</g>
<g filter="url(#filter1_dd_12115_2953)">
<rect x="4" y="9" width="221.482" height="251.387" rx="24.7102" fill="white"/>
<rect x="4.61775" y="9.61775" width="220.247" height="250.151" rx="24.0924" stroke="#F9FBFF" stroke-width="1.23551"/>
<line x1="24.556" y1="90.3072" x2="109.605" y2="90.3072" stroke="#D1D5DB" stroke-width="9.33799" stroke-linecap="round"/>
<path d="M163.669 227.681C163.669 228.417 163.485 229.109 163.117 229.757C162.764 230.405 162.234 230.949 161.527 231.391C160.835 231.833 160.011 232.098 159.053 232.186V233.975H157.618V232.186C156.234 232.054 155.115 231.619 154.261 230.883C153.407 230.147 152.98 229.175 152.98 227.968H155.674C155.719 228.542 155.903 229.02 156.227 229.403C156.55 229.771 157.014 230.007 157.618 230.11V225.251C156.631 225.001 155.829 224.751 155.211 224.5C154.592 224.235 154.062 223.823 153.62 223.263C153.193 222.704 152.98 221.938 152.98 220.967C152.98 219.744 153.407 218.736 154.261 217.941C155.115 217.131 156.234 216.66 157.618 216.527V214.738H159.053V216.527C160.349 216.645 161.387 217.057 162.168 217.764C162.963 218.456 163.412 219.413 163.515 220.635H160.82C160.776 220.179 160.599 219.774 160.29 219.421C159.981 219.052 159.569 218.802 159.053 218.67V223.44C160.04 223.676 160.842 223.926 161.461 224.191C162.079 224.441 162.602 224.846 163.029 225.406C163.456 225.951 163.669 226.709 163.669 227.681ZM155.542 220.834C155.542 221.438 155.719 221.909 156.072 222.248C156.44 222.586 156.955 222.859 157.618 223.065V218.603C156.985 218.677 156.477 218.905 156.094 219.288C155.726 219.671 155.542 220.186 155.542 220.834ZM159.053 230.11C159.701 230.007 160.209 229.749 160.577 229.337C160.946 228.91 161.13 228.402 161.13 227.813C161.13 227.224 160.946 226.768 160.577 226.444C160.224 226.105 159.716 225.833 159.053 225.627V230.11ZM170.48 227.681C170.628 228.417 170.944 228.976 171.43 229.359C171.916 229.742 172.571 229.933 173.396 229.933C174.441 229.933 175.207 229.521 175.693 228.697C176.179 227.872 176.421 226.466 176.421 224.478C176.068 224.979 175.568 225.369 174.92 225.649C174.287 225.914 173.595 226.046 172.844 226.046C171.887 226.046 171.018 225.855 170.237 225.472C169.457 225.074 168.839 224.493 168.382 223.727C167.941 222.947 167.72 222.005 167.72 220.9C167.72 219.281 168.191 217.992 169.133 217.035C170.09 216.064 171.401 215.578 173.064 215.578C175.067 215.578 176.488 216.248 177.327 217.587C178.181 218.913 178.608 220.952 178.608 223.705C178.608 225.605 178.446 227.158 178.122 228.365C177.813 229.573 177.268 230.485 176.488 231.104C175.707 231.722 174.625 232.031 173.241 232.031C171.666 232.031 170.451 231.619 169.597 230.795C168.743 229.97 168.265 228.932 168.161 227.681H170.48ZM173.285 223.926C174.169 223.926 174.861 223.654 175.361 223.109C175.877 222.549 176.134 221.813 176.134 220.9C176.134 219.884 175.862 219.097 175.317 218.537C174.787 217.963 174.058 217.676 173.131 217.676C172.203 217.676 171.467 217.97 170.922 218.559C170.392 219.133 170.127 219.892 170.127 220.834C170.127 221.732 170.385 222.476 170.9 223.065C171.43 223.639 172.225 223.926 173.285 223.926ZM184.5 227.681C184.647 228.417 184.963 228.976 185.449 229.359C185.935 229.742 186.59 229.933 187.415 229.933C188.46 229.933 189.226 229.521 189.712 228.697C190.198 227.872 190.441 226.466 190.441 224.478C190.087 224.979 189.587 225.369 188.939 225.649C188.306 225.914 187.614 226.046 186.863 226.046C185.906 226.046 185.037 225.855 184.257 225.472C183.476 225.074 182.858 224.493 182.402 223.727C181.96 222.947 181.739 222.005 181.739 220.9C181.739 219.281 182.21 217.992 183.152 217.035C184.11 216.064 185.42 215.578 187.084 215.578C189.086 215.578 190.507 216.248 191.346 217.587C192.2 218.913 192.627 220.952 192.627 223.705C192.627 225.605 192.465 227.158 192.141 228.365C191.832 229.573 191.287 230.485 190.507 231.104C189.727 231.722 188.644 232.031 187.26 232.031C185.685 232.031 184.47 231.619 183.616 230.795C182.762 229.97 182.284 228.932 182.181 227.681H184.5ZM187.305 223.926C188.188 223.926 188.88 223.654 189.381 223.109C189.896 222.549 190.154 221.813 190.154 220.9C190.154 219.884 189.881 219.097 189.336 218.537C188.806 217.963 188.078 217.676 187.15 217.676C186.222 217.676 185.486 217.97 184.941 218.559C184.411 219.133 184.146 219.892 184.146 220.834C184.146 221.732 184.404 222.476 184.919 223.065C185.449 223.639 186.244 223.926 187.305 223.926ZM195.383 223.794C195.383 221.246 195.81 219.259 196.664 217.83C197.532 216.387 199.02 215.666 201.125 215.666C203.231 215.666 204.71 216.387 205.564 217.83C206.433 219.259 206.867 221.246 206.867 223.794C206.867 226.37 206.433 228.387 205.564 229.845C204.71 231.288 203.231 232.009 201.125 232.009C199.02 232.009 197.532 231.288 196.664 229.845C195.81 228.387 195.383 226.37 195.383 223.794ZM204.394 223.794C204.394 222.601 204.313 221.592 204.151 220.768C204.004 219.943 203.694 219.273 203.223 218.758C202.752 218.228 202.053 217.963 201.125 217.963C200.197 217.963 199.498 218.228 199.027 218.758C198.556 219.273 198.239 219.943 198.077 220.768C197.93 221.592 197.856 222.601 197.856 223.794C197.856 225.03 197.93 226.068 198.077 226.908C198.224 227.747 198.534 228.424 199.005 228.939C199.491 229.455 200.197 229.712 201.125 229.712C202.053 229.712 202.752 229.455 203.223 228.939C203.709 228.424 204.026 227.747 204.173 226.908C204.32 226.068 204.394 225.03 204.394 223.794Z" fill="#111827"/>
<line x1="24.556" y1="145.444" x2="165.676" y2="145.444" stroke="#D1D5DB" stroke-width="9.33799" stroke-linecap="round"/>
<line x1="24.556" y1="168.807" x2="109.605" y2="168.807" stroke="#D1D5DB" stroke-width="9.33799" stroke-linecap="round"/>
<path d="M22.713 39.8402V50.2321H21.0084V39.8402H22.713ZM29.1077 41.8588C29.7556 41.8588 30.3338 41.9934 30.8422 42.2625C31.3605 42.5317 31.7642 42.9304 32.0533 43.4587C32.3424 43.987 32.4869 44.625 32.4869 45.3726V50.2321H30.7973V45.6268C30.7973 44.8892 30.6129 44.326 30.2441 43.9372C29.8752 43.5385 29.3718 43.3391 28.7339 43.3391C28.0959 43.3391 27.5875 43.5385 27.2087 43.9372C26.8399 44.326 26.6555 44.8892 26.6555 45.6268V50.2321H24.9509V41.9934H26.6555V42.9354C26.9346 42.5965 27.2885 42.3323 27.7171 42.1429C28.1557 41.9535 28.6192 41.8588 29.1077 41.8588ZM37.8461 48.707L40.1786 41.9934H41.9879L38.8479 50.2321H36.8143L33.6893 41.9934H35.5135L37.8461 48.707ZM46.85 50.3667C46.0724 50.3667 45.3697 50.1923 44.7417 49.8434C44.1137 49.4845 43.6202 48.9861 43.2614 48.3481C42.9025 47.7002 42.7231 46.9526 42.7231 46.1053C42.7231 45.268 42.9075 44.5253 43.2763 43.8774C43.6452 43.2294 44.1486 42.731 44.7865 42.3821C45.4245 42.0333 46.1372 41.8588 46.9247 41.8588C47.7122 41.8588 48.4249 42.0333 49.0629 42.3821C49.7009 42.731 50.2043 43.2294 50.5731 43.8774C50.9419 44.5253 51.1263 45.268 51.1263 46.1053C51.1263 46.9426 50.9369 47.6853 50.5582 48.3332C50.1794 48.9811 49.661 49.4845 49.0031 49.8434C48.3552 50.1923 47.6375 50.3667 46.85 50.3667ZM46.85 48.8864C47.2886 48.8864 47.6973 48.7818 48.0761 48.5724C48.4648 48.3631 48.7788 48.0491 49.0181 47.6304C49.2573 47.2118 49.3769 46.7034 49.3769 46.1053C49.3769 45.5072 49.2623 45.0038 49.033 44.5951C48.8037 44.1764 48.4997 43.8624 48.1209 43.6531C47.7421 43.4438 47.3334 43.3391 46.8948 43.3391C46.4562 43.3391 46.0475 43.4438 45.6687 43.6531C45.2999 43.8624 45.0058 44.1764 44.7865 44.5951C44.5672 45.0038 44.4576 45.5072 44.4576 46.1053C44.4576 46.9925 44.6819 47.6803 45.1304 48.1687C45.589 48.6472 46.1622 48.8864 46.85 48.8864ZM53.6786 40.9019C53.3696 40.9019 53.1105 40.7972 52.9011 40.5879C52.6918 40.3785 52.5871 40.1194 52.5871 39.8103C52.5871 39.5013 52.6918 39.2421 52.9011 39.0328C53.1105 38.8235 53.3696 38.7188 53.6786 38.7188C53.9777 38.7188 54.2319 38.8235 54.4412 39.0328C54.6505 39.2421 54.7552 39.5013 54.7552 39.8103C54.7552 40.1194 54.6505 40.3785 54.4412 40.5879C54.2319 40.7972 53.9777 40.9019 53.6786 40.9019ZM54.516 41.9934V50.2321H52.8114V41.9934H54.516ZM56.1857 46.1053C56.1857 45.258 56.3552 44.5154 56.6941 43.8774C57.043 43.2294 57.5215 42.731 58.1295 42.3821C58.7376 42.0333 59.4354 41.8588 60.2229 41.8588C61.2197 41.8588 62.0421 42.0981 62.69 42.5765C63.3479 43.045 63.7915 43.7179 64.0208 44.5951H62.1816C62.0321 44.1864 61.7929 43.8674 61.4639 43.6381C61.135 43.4089 60.7213 43.2942 60.2229 43.2942C59.5251 43.2942 58.9669 43.5434 58.5482 44.0419C58.1395 44.5303 57.9352 45.2181 57.9352 46.1053C57.9352 46.9925 58.1395 47.6853 58.5482 48.1837C58.9669 48.6821 59.5251 48.9313 60.2229 48.9313C61.2097 48.9313 61.8627 48.4977 62.1816 47.6304H64.0208C63.7815 48.4678 63.333 49.1356 62.6751 49.6341C62.0172 50.1225 61.1998 50.3667 60.2229 50.3667C59.4354 50.3667 58.7376 50.1923 58.1295 49.8434C57.5215 49.4845 57.043 48.9861 56.6941 48.3481C56.3552 47.7002 56.1857 46.9526 56.1857 46.1053ZM73.2705 45.9109C73.2705 46.2199 73.2505 46.499 73.2107 46.7482H66.9157C66.9655 47.4061 67.2098 47.9345 67.6484 48.3332C68.087 48.7319 68.6253 48.9313 69.2632 48.9313C70.1803 48.9313 70.8282 48.5475 71.207 47.78H73.0462C72.797 48.5375 72.3434 49.1606 71.6855 49.649C71.0376 50.1275 70.2302 50.3667 69.2632 50.3667C68.4757 50.3667 67.768 50.1923 67.14 49.8434C66.522 49.4845 66.0335 48.9861 65.6747 48.3481C65.3258 47.7002 65.1513 46.9526 65.1513 46.1053C65.1513 45.258 65.3208 44.5154 65.6597 43.8774C66.0086 43.2294 66.4921 42.731 67.1101 42.3821C67.7381 42.0333 68.4558 41.8588 69.2632 41.8588C70.0408 41.8588 70.7335 42.0283 71.3416 42.3672C71.9497 42.7061 72.4232 43.1846 72.7621 43.8026C73.101 44.4107 73.2705 45.1134 73.2705 45.9109ZM71.4911 45.3726C71.4812 44.7446 71.2569 44.2412 70.8183 43.8624C70.3797 43.4836 69.8364 43.2942 69.1885 43.2942C68.6003 43.2942 68.0969 43.4836 67.6783 43.8624C67.2596 44.2313 67.0104 44.7347 66.9307 45.3726H71.4911ZM78.3835 40.8869V39.3319H81.4936V50.2321H79.7741V40.8869H78.3835Z" fill="#111827"/>
</g>
<path d="M74 260V443C74 455.703 84.2975 466 97 466H515C527.703 466 538 455.703 538 443V428.5" stroke="#ECF999" stroke-width="6"/>
<circle cx="217.502" cy="16.5019" r="16.5019" fill="#ECF999"/>
<path d="M212.375 17.5625L216.875 22.0625L223.625 11.9375" stroke="#6B7280" stroke-width="1.5" stroke-linecap="round" stroke-linejoin="round"/>
<g filter="url(#filter2_dd_12115_2953)">
<rect x="237.518" y="9" width="221.482" height="251.387" rx="24.7102" fill="white"/>
<rect x="238.136" y="9.61775" width="220.247" height="250.151" rx="24.0924" stroke="#F9FBFF" stroke-width="1.23551"/>
<line x1="258.074" y1="90.3072" x2="343.123" y2="90.3072" stroke="#D1D5DB" stroke-width="9.33799" stroke-linecap="round"/>
<path d="M392.515 227.681C392.515 228.417 392.331 229.109 391.962 229.757C391.609 230.405 391.079 230.949 390.372 231.391C389.68 231.833 388.856 232.098 387.899 232.186V233.975H386.463V232.186C385.079 232.054 383.96 231.619 383.106 230.883C382.252 230.147 381.825 229.175 381.825 227.968H384.52C384.564 228.542 384.748 229.02 385.072 229.403C385.396 229.771 385.859 230.007 386.463 230.11V225.251C385.477 225.001 384.674 224.751 384.056 224.5C383.437 224.235 382.907 223.823 382.466 223.263C382.039 222.704 381.825 221.938 381.825 220.967C381.825 219.744 382.252 218.736 383.106 217.941C383.96 217.131 385.079 216.66 386.463 216.527V214.738H387.899V216.527C389.194 216.645 390.232 217.057 391.013 217.764C391.808 218.456 392.257 219.413 392.36 220.635H389.666C389.621 220.179 389.445 219.774 389.136 219.421C388.826 219.052 388.414 218.802 387.899 218.67V223.44C388.885 223.676 389.688 223.926 390.306 224.191C390.924 224.441 391.447 224.846 391.874 225.406C392.301 225.951 392.515 226.709 392.515 227.681ZM384.387 220.834C384.387 221.438 384.564 221.909 384.917 222.248C385.285 222.586 385.801 222.859 386.463 223.065V218.603C385.83 218.677 385.322 218.905 384.939 219.288C384.571 219.671 384.387 220.186 384.387 220.834ZM387.899 230.11C388.547 230.007 389.055 229.749 389.423 229.337C389.791 228.91 389.975 228.402 389.975 227.813C389.975 227.224 389.791 226.768 389.423 226.444C389.069 226.105 388.561 225.833 387.899 225.627V230.11ZM395.858 218.25V215.953H400.452V232.054H397.912V218.25H395.858ZM405.302 228.63C406.716 227.408 407.827 226.407 408.637 225.627C409.462 224.832 410.146 224.007 410.691 223.153C411.236 222.299 411.508 221.445 411.508 220.591C411.508 219.708 411.295 219.016 410.868 218.515C410.456 218.014 409.8 217.764 408.902 217.764C408.034 217.764 407.356 218.044 406.87 218.603C406.399 219.148 406.149 219.884 406.119 220.812H403.69C403.734 219.133 404.235 217.852 405.192 216.969C406.164 216.071 407.393 215.622 408.88 215.622C410.485 215.622 411.737 216.064 412.635 216.947C413.548 217.83 414.004 219.008 414.004 220.481C414.004 221.541 413.732 222.564 413.187 223.551C412.657 224.522 412.016 225.398 411.265 226.179C410.529 226.944 409.587 227.835 408.438 228.851L407.445 229.735H414.446V231.833H403.712V230L405.302 228.63ZM416.613 219.929C416.702 218.559 417.224 217.492 418.181 216.726C419.153 215.96 420.39 215.578 421.892 215.578C422.923 215.578 423.813 215.762 424.564 216.13C425.315 216.498 425.882 216.998 426.265 217.632C426.648 218.265 426.839 218.979 426.839 219.774C426.839 220.687 426.596 221.467 426.11 222.115C425.624 222.763 425.043 223.197 424.365 223.418V223.506C425.234 223.771 425.911 224.257 426.397 224.964C426.883 225.656 427.126 226.547 427.126 227.636C427.126 228.505 426.927 229.278 426.53 229.955C426.132 230.633 425.543 231.17 424.763 231.568C423.983 231.951 423.048 232.142 421.958 232.142C420.368 232.142 419.058 231.737 418.027 230.927C417.011 230.103 416.466 228.925 416.393 227.393H418.822C418.881 228.174 419.183 228.814 419.727 229.315C420.272 229.801 421.008 230.044 421.936 230.044C422.834 230.044 423.526 229.801 424.012 229.315C424.498 228.814 424.741 228.174 424.741 227.393C424.741 226.363 424.41 225.634 423.747 225.207C423.099 224.765 422.098 224.544 420.743 224.544H420.169V222.468H420.766C421.958 222.454 422.864 222.255 423.482 221.872C424.115 221.489 424.432 220.886 424.432 220.061C424.432 219.354 424.204 218.795 423.747 218.383C423.291 217.956 422.643 217.742 421.804 217.742C420.979 217.742 420.339 217.956 419.882 218.383C419.426 218.795 419.153 219.31 419.065 219.929H416.613ZM429.771 223.794C429.771 221.246 430.198 219.259 431.052 217.83C431.921 216.387 433.408 215.666 435.513 215.666C437.619 215.666 439.099 216.387 439.952 217.83C440.821 219.259 441.256 221.246 441.256 223.794C441.256 226.37 440.821 228.387 439.952 229.845C439.099 231.288 437.619 232.009 435.513 232.009C433.408 232.009 431.921 231.288 431.052 229.845C430.198 228.387 429.771 226.37 429.771 223.794ZM438.782 223.794C438.782 222.601 438.701 221.592 438.539 220.768C438.392 219.943 438.083 219.273 437.611 218.758C437.14 218.228 436.441 217.963 435.513 217.963C434.586 217.963 433.886 218.228 433.415 218.758C432.944 219.273 432.627 219.943 432.465 220.768C432.318 221.592 432.245 222.601 432.245 223.794C432.245 225.03 432.318 226.068 432.465 226.908C432.613 227.747 432.922 228.424 433.393 228.939C433.879 229.455 434.586 229.712 435.513 229.712C436.441 229.712 437.14 229.455 437.611 228.939C438.097 228.424 438.414 227.747 438.561 226.908C438.708 226.068 438.782 225.03 438.782 223.794Z" fill="#111827"/>
<line x1="258.074" y1="145.444" x2="399.194" y2="145.444" stroke="#D1D5DB" stroke-width="9.33799" stroke-linecap="round"/>
<line x1="258.074" y1="168.807" x2="343.123" y2="168.807" stroke="#D1D5DB" stroke-width="9.33799" stroke-linecap="round"/>
<path d="M256.231 39.8402V50.2321H254.526V39.8402H256.231ZM262.625 41.8588C263.273 41.8588 263.852 41.9934 264.36 42.2625C264.878 42.5317 265.282 42.9304 265.571 43.4587C265.86 43.987 266.005 44.625 266.005 45.3726V50.2321H264.315V45.6268C264.315 44.8892 264.131 44.326 263.762 43.9372C263.393 43.5385 262.89 43.3391 262.252 43.3391C261.614 43.3391 261.105 43.5385 260.727 43.9372C260.358 44.326 260.173 44.8892 260.173 45.6268V50.2321H258.469V41.9934H260.173V42.9354C260.452 42.5965 260.806 42.3323 261.235 42.1429C261.674 41.9535 262.137 41.8588 262.625 41.8588ZM271.364 48.707L273.696 41.9934H275.506L272.366 50.2321H270.332L267.207 41.9934H269.031L271.364 48.707ZM280.368 50.3667C279.59 50.3667 278.887 50.1923 278.259 49.8434C277.631 49.4845 277.138 48.9861 276.779 48.3481C276.42 47.7002 276.241 46.9526 276.241 46.1053C276.241 45.268 276.425 44.5253 276.794 43.8774C277.163 43.2294 277.666 42.731 278.304 42.3821C278.942 42.0333 279.655 41.8588 280.443 41.8588C281.23 41.8588 281.943 42.0333 282.581 42.3821C283.219 42.731 283.722 43.2294 284.091 43.8774C284.46 44.5253 284.644 45.268 284.644 46.1053C284.644 46.9426 284.455 47.6853 284.076 48.3332C283.697 48.9811 283.179 49.4845 282.521 49.8434C281.873 50.1923 281.155 50.3667 280.368 50.3667ZM280.368 48.8864C280.806 48.8864 281.215 48.7818 281.594 48.5724C281.983 48.3631 282.297 48.0491 282.536 47.6304C282.775 47.2118 282.895 46.7034 282.895 46.1053C282.895 45.5072 282.78 45.0038 282.551 44.5951C282.322 44.1764 282.018 43.8624 281.639 43.6531C281.26 43.4438 280.851 43.3391 280.413 43.3391C279.974 43.3391 279.565 43.4438 279.187 43.6531C278.818 43.8624 278.524 44.1764 278.304 44.5951C278.085 45.0038 277.975 45.5072 277.975 46.1053C277.975 46.9925 278.2 47.6803 278.648 48.1687C279.107 48.6472 279.68 48.8864 280.368 48.8864ZM287.196 40.9019C286.887 40.9019 286.628 40.7972 286.419 40.5879C286.21 40.3785 286.105 40.1194 286.105 39.8103C286.105 39.5013 286.21 39.2421 286.419 39.0328C286.628 38.8235 286.887 38.7188 287.196 38.7188C287.496 38.7188 287.75 38.8235 287.959 39.0328C288.168 39.2421 288.273 39.5013 288.273 39.8103C288.273 40.1194 288.168 40.3785 287.959 40.5879C287.75 40.7972 287.496 40.9019 287.196 40.9019ZM288.034 41.9934V50.2321H286.329V41.9934H288.034ZM289.704 46.1053C289.704 45.258 289.873 44.5154 290.212 43.8774C290.561 43.2294 291.039 42.731 291.647 42.3821C292.255 42.0333 292.953 41.8588 293.741 41.8588C294.738 41.8588 295.56 42.0981 296.208 42.5765C296.866 43.045 297.309 43.7179 297.539 44.5951H295.699C295.55 44.1864 295.311 43.8674 294.982 43.6381C294.653 43.4089 294.239 43.2942 293.741 43.2942C293.043 43.2942 292.485 43.5434 292.066 44.0419C291.657 44.5303 291.453 45.2181 291.453 46.1053C291.453 46.9925 291.657 47.6853 292.066 48.1837C292.485 48.6821 293.043 48.9313 293.741 48.9313C294.728 48.9313 295.38 48.4977 295.699 47.6304H297.539C297.299 48.4678 296.851 49.1356 296.193 49.6341C295.535 50.1225 294.718 50.3667 293.741 50.3667C292.953 50.3667 292.255 50.1923 291.647 49.8434C291.039 49.4845 290.561 48.9861 290.212 48.3481C289.873 47.7002 289.704 46.9526 289.704 46.1053ZM306.788 45.9109C306.788 46.2199 306.768 46.499 306.728 46.7482H300.434C300.483 47.4061 300.728 47.9345 301.166 48.3332C301.605 48.7319 302.143 48.9313 302.781 48.9313C303.698 48.9313 304.346 48.5475 304.725 47.78H306.564C306.315 48.5375 305.861 49.1606 305.203 49.649C304.555 50.1275 303.748 50.3667 302.781 50.3667C301.994 50.3667 301.286 50.1923 300.658 49.8434C300.04 49.4845 299.551 48.9861 299.192 48.3481C298.844 47.7002 298.669 46.9526 298.669 46.1053C298.669 45.258 298.839 44.5154 299.178 43.8774C299.526 43.2294 300.01 42.731 300.628 42.3821C301.256 42.0333 301.974 41.8588 302.781 41.8588C303.559 41.8588 304.251 42.0283 304.859 42.3672C305.467 42.7061 305.941 43.1846 306.28 43.8026C306.619 44.4107 306.788 45.1134 306.788 45.9109ZM305.009 45.3726C304.999 44.7446 304.775 44.2412 304.336 43.8624C303.897 43.4836 303.354 43.2942 302.706 43.2942C302.118 43.2942 301.615 43.4836 301.196 43.8624C300.777 44.2313 300.528 44.7347 300.448 45.3726H305.009ZM313.068 47.9145C314.025 47.0872 314.777 46.4093 315.325 45.881C315.884 45.3427 316.347 44.7845 316.716 44.2063C317.085 43.6282 317.269 43.05 317.269 42.4719C317.269 41.8738 317.125 41.4053 316.836 41.0663C316.556 40.7274 316.113 40.558 315.505 40.558C314.917 40.558 314.458 40.7474 314.129 41.1261C313.81 41.495 313.641 41.9934 313.621 42.6214H311.976C312.006 41.485 312.345 40.6178 312.993 40.0197C313.651 39.4116 314.483 39.1076 315.49 39.1076C316.576 39.1076 317.424 39.4066 318.032 40.0047C318.65 40.6028 318.959 41.4003 318.959 42.3971C318.959 43.1148 318.774 43.8076 318.406 44.4755C318.047 45.1334 317.613 45.7265 317.105 46.2548C316.606 46.7732 315.968 47.3762 315.191 48.0641L314.518 48.6621H319.258V50.0826H311.991V48.8416L313.068 47.9145Z" fill="#111827"/>
</g>
<circle cx="453.502" cy="17.5019" r="16.5019" fill="#ECF999"/>
<path d="M448.375 18.5625L452.875 23.0625L459.625 12.9375" stroke="#6B7280" stroke-width="1.5" stroke-linecap="round" stroke-linejoin="round"/>
<path d="M460 138L487.197 138C506.971 138 523 154.029 523 173.803L523 311" stroke="#1F2937" stroke-width="1.17871"/>
<defs>
<filter id="filter0_dd_12115_2953" x="142.034" y="304.712" width="425.899" height="129.899" filterUnits="userSpaceOnUse" color-interpolation-filters="sRGB">
<feFlood flood-opacity="0" result="BackgroundImageFix"/>
<feColorMatrix in="SourceAlpha" type="matrix" values="0 0 0 0 0 0 0 0 0 0 0 0 0 0 0 0 0 0 127 0" result="hardAlpha"/>
<feOffset dy="2.64415"/>
<feGaussianBlur stdDeviation="1.98311"/>
<feComposite in2="hardAlpha" operator="out"/>
<feColorMatrix type="matrix" values="0 0 0 0 0 0 0 0 0 0 0 0 0 0 0 0 0 0 0.1 0"/>
<feBlend mode="normal" in2="BackgroundImageFix" result="effect1_dropShadow_12115_2953"/>
<feColorMatrix in="SourceAlpha" type="matrix" values="0 0 0 0 0 0 0 0 0 0 0 0 0 0 0 0 0 0 127 0" result="hardAlpha"/>
<feOffset dx="2.64415"/>
<feGaussianBlur stdDeviation="2.64415"/>
<feComposite in2="hardAlpha" operator="out"/>
<feColorMatrix type="matrix" values="0 0 0 0 0 0 0 0 0 0 0 0 0 0 0 0 0 0 0.1 0"/>
<feBlend mode="normal" in2="effect1_dropShadow_12115_2953" result="effect2_dropShadow_12115_2953"/>
<feBlend mode="normal" in="SourceGraphic" in2="effect2_dropShadow_12115_2953" result="shape"/>
</filter>
<filter id="filter1_dd_12115_2953" x="0.293474" y="4.05796" width="232.602" height="262.506" filterUnits="userSpaceOnUse" color-interpolation-filters="sRGB">
<feFlood flood-opacity="0" result="BackgroundImageFix"/>
<feColorMatrix in="SourceAlpha" type="matrix" values="0 0 0 0 0 0 0 0 0 0 0 0 0 0 0 0 0 0 127 0" result="hardAlpha"/>
<feOffset dy="2.47102"/>
<feGaussianBlur stdDeviation="1.85326"/>
<feComposite in2="hardAlpha" operator="out"/>
<feColorMatrix type="matrix" values="0 0 0 0 0 0 0 0 0 0 0 0 0 0 0 0 0 0 0.1 0"/>
<feBlend mode="normal" in2="BackgroundImageFix" result="effect1_dropShadow_12115_2953"/>
<feColorMatrix in="SourceAlpha" type="matrix" values="0 0 0 0 0 0 0 0 0 0 0 0 0 0 0 0 0 0 127 0" result="hardAlpha"/>
<feOffset dx="2.47102"/>
<feGaussianBlur stdDeviation="2.47102"/>
<feComposite in2="hardAlpha" operator="out"/>
<feColorMatrix type="matrix" values="0 0 0 0 0 0 0 0 0 0 0 0 0 0 0 0 0 0 0.1 0"/>
<feBlend mode="normal" in2="effect1_dropShadow_12115_2953" result="effect2_dropShadow_12115_2953"/>
<feBlend mode="normal" in="SourceGraphic" in2="effect2_dropShadow_12115_2953" result="shape"/>
</filter>
<filter id="filter2_dd_12115_2953" x="233.811" y="4.05796" width="232.602" height="262.506" filterUnits="userSpaceOnUse" color-interpolation-filters="sRGB">
<feFlood flood-opacity="0" result="BackgroundImageFix"/>
<feColorMatrix in="SourceAlpha" type="matrix" values="0 0 0 0 0 0 0 0 0 0 0 0 0 0 0 0 0 0 127 0" result="hardAlpha"/>
<feOffset dy="2.47102"/>
<feGaussianBlur stdDeviation="1.85326"/>
<feComposite in2="hardAlpha" operator="out"/>
<feColorMatrix type="matrix" values="0 0 0 0 0 0 0 0 0 0 0 0 0 0 0 0 0 0 0.1 0"/>
<feBlend mode="normal" in2="BackgroundImageFix" result="effect1_dropShadow_12115_2953"/>
<feColorMatrix in="SourceAlpha" type="matrix" values="0 0 0 0 0 0 0 0 0 0 0 0 0 0 0 0 0 0 127 0" result="hardAlpha"/>
<feOffset dx="2.47102"/>
<feGaussianBlur stdDeviation="2.47102"/>
<feComposite in2="hardAlpha" operator="out"/>
<feColorMatrix type="matrix" values="0 0 0 0 0 0 0 0 0 0 0 0 0 0 0 0 0 0 0.1 0"/>
<feBlend mode="normal" in2="effect1_dropShadow_12115_2953" result="effect2_dropShadow_12115_2953"/>
<feBlend mode="normal" in="SourceGraphic" in2="effect2_dropShadow_12115_2953" result="shape"/>
</filter>
<clipPath id="clip0_12115_2953">
<rect width="75" height="75" fill="white" transform="translate(187 332)"/>
</clipPath>
<clipPath id="clip1_12115_2953">
<rect width="75" height="75" fill="white" transform="translate(316 332)"/>
</clipPath>
</defs>
</svg>