<svg width="68" height="54" viewBox="0 0 68 54" fill="none" xmlns="http://www.w3.org/2000/svg">
<path d="M13.1933 8.21763L13.1929 8.21802C8.77529 12.3072 6.64574 18.3129 6.64574 26.0503C6.64574 28.4434 6.36525 31.4217 6.07045 34.552C5.90491 36.3098 5.73485 38.1155 5.60743 39.8924C5.43306 42.3238 5.34215 44.6833 5.47699 46.696C5.60878 48.6631 5.96458 50.4897 6.83229 51.7032C7.08454 52.056 7.46923 52.2361 7.72632 52.335C8.02161 52.4487 8.36954 52.5353 8.73827 52.6047C9.47978 52.7443 10.4377 52.8382 11.5192 52.8998C13.6902 53.0234 16.4819 53.0227 19.3067 52.9531C24.924 52.8147 30.8503 52.3989 32.4044 52.104C32.8957 52.0108 33.2605 51.7166 33.5153 51.4142C33.7697 51.1124 33.9676 50.742 34.1271 50.3578C34.4467 49.5882 34.6855 48.5823 34.8648 47.4662C35.2256 45.22 35.3773 42.3155 35.3502 39.4475C35.3231 36.5784 35.1166 33.6937 34.7429 31.4843C34.5574 30.387 34.3227 29.4072 34.0263 28.6682C33.8791 28.3011 33.697 27.943 33.4627 27.6529C33.2333 27.369 32.8682 27.0475 32.3468 26.9798C30.5776 26.7501 28.0029 26.9373 25.6924 27.1054C25.4434 27.1235 25.1976 27.1414 24.9561 27.1585C23.6791 27.249 22.5101 27.3208 21.5708 27.3129C21.1015 27.309 20.7165 27.2852 20.4199 27.2409C20.2727 27.2188 20.1605 27.1937 20.0783 27.1688C19.9994 27.1448 19.9672 27.1268 19.9645 27.1253C19.9643 27.1252 19.9643 27.1252 19.9644 27.1253C19.936 27.1074 19.8081 27.005 19.7403 26.5622C19.6745 26.1329 19.6947 25.553 19.7901 24.8637C19.9591 23.6417 20.3287 22.298 20.6229 21.2283C20.6599 21.0935 20.6958 20.9631 20.7299 20.8377C21.2637 18.8778 22.3144 17.3853 23.8876 16.3093C24.5709 15.8419 25.9199 15.4798 27.423 15.2474C28.8744 15.0229 30.2687 14.9469 30.8838 14.9469C31.6093 14.9469 32.0306 14.387 32.2065 14.11C32.4264 13.7637 32.5982 13.3275 32.7352 12.8833C33.0137 11.9805 33.2168 10.8159 33.3207 9.67041C33.4243 8.52783 33.4355 7.33441 33.2972 6.3785C33.229 5.90743 33.1156 5.42793 32.9173 5.02886C32.7278 4.64737 32.3515 4.13443 31.6741 4.02604C31.1504 3.94227 30.0148 3.91631 28.6141 3.9678C27.1814 4.02048 25.3884 4.1576 23.5114 4.42811C21.6375 4.69818 19.6579 5.10433 17.8615 5.70221C16.0794 6.29537 14.3995 7.10244 13.1933 8.21763Z" fill="#FBB130" stroke="#FBB130" stroke-width="2"/>
<path d="M45.1346 8.23597L45.1342 8.23638C40.946 12.3286 38.9343 18.3276 38.9343 26.0501C38.9343 28.4453 38.6682 31.4283 38.3888 34.5606C38.232 36.3178 38.0711 38.1221 37.9505 39.8959C37.7854 42.3267 37.6995 44.6833 37.827 46.6922C37.9516 48.6552 38.2873 50.473 39.1064 51.6822C39.3484 52.0394 39.7222 52.2254 39.9746 52.328C40.2613 52.4445 40.5972 52.5325 40.9497 52.6025C41.6587 52.7434 42.5714 52.8377 43.5978 52.8994C45.6589 53.0232 48.307 53.0224 50.9842 52.9528C56.3047 52.8145 61.9277 52.3987 63.4097 52.1018C63.9041 52.0028 64.2597 51.6936 64.4994 51.3935C64.7407 51.0913 64.9274 50.7219 65.0776 50.3401C65.3789 49.5742 65.6045 48.5721 65.7741 47.4578C66.1153 45.2153 66.259 42.314 66.2333 39.4478C66.2077 36.5804 66.0121 33.6986 65.6587 31.4926C65.4831 30.3969 65.2614 29.4205 64.9819 28.685C64.8433 28.3203 64.6717 27.9635 64.4496 27.6733C64.2358 27.3939 63.8785 27.053 63.3491 26.9805C61.6614 26.7492 59.2104 26.9374 57.0247 27.1053C56.7883 27.1235 56.5549 27.1414 56.326 27.1585C55.1158 27.2491 54.0124 27.3205 53.1274 27.3127C52.6853 27.3088 52.3262 27.2851 52.0519 27.2418C51.9161 27.2204 51.8147 27.1962 51.7425 27.1731C51.6806 27.1533 51.6546 27.1388 51.6521 27.1375C51.6328 27.1237 51.5103 27.0162 51.4455 26.5697C51.3821 26.1332 51.402 25.5476 51.4926 24.8564C51.6532 23.631 52.0041 22.2842 52.2827 21.2149C52.3178 21.0801 52.3518 20.9497 52.3841 20.8246C52.8927 18.8533 53.8917 17.363 55.3719 16.2944C56.0051 15.8373 57.2655 15.4779 58.687 15.2458C60.0568 15.0222 61.3723 14.9467 61.9493 14.9467C62.3312 14.9467 62.6285 14.7797 62.8244 14.6153C63.0154 14.4551 63.1561 14.2612 63.2596 14.0891C63.4668 13.7446 63.6286 13.3109 63.7579 12.8688C64.0206 11.9696 64.2126 10.8085 64.3108 9.66545C64.4087 8.5251 64.4191 7.33614 64.2888 6.38565C64.2246 5.91755 64.1181 5.44273 63.9322 5.04769C63.7597 4.68137 63.3995 4.14283 62.7149 4.0272C62.2074 3.94151 61.122 3.91614 59.7951 3.96764C58.4345 4.02044 56.732 4.15787 54.9497 4.42901C53.1705 4.69969 51.2889 5.10702 49.5802 5.70733C47.8843 6.30311 46.2836 7.11471 45.1346 8.23597Z" fill="#FBB130" stroke="#FBB130" stroke-width="2"/>
<path d="M8.78121 5.27646L8.78079 5.27686C4.36318 9.36601 2.23363 15.3717 2.23363 23.1091C2.23363 25.5022 1.95314 28.4806 1.65834 31.6108C1.4928 33.3686 1.32274 35.1744 1.19532 36.9512C1.02095 39.3826 0.930043 41.7422 1.06488 43.7548C1.19667 45.722 1.55247 47.5485 2.42018 48.762C2.67243 49.1148 3.05712 49.2949 3.31421 49.3939C3.6095 49.5076 3.95743 49.5941 4.32616 49.6635C5.06767 49.8031 6.02556 49.8971 7.10709 49.9586C9.27814 50.0822 12.0698 50.0815 14.8946 50.0119C20.5119 49.8736 26.4382 49.4578 27.9923 49.1629C28.4836 49.0697 28.8483 48.7754 29.1032 48.473C29.3576 48.1713 29.5554 47.8009 29.715 47.4166C30.0346 46.647 30.2734 45.6412 30.4527 44.525C30.8135 42.2788 30.9652 39.3743 30.9381 36.5064C30.911 33.6372 30.7045 30.7526 30.3308 28.5432C30.1452 27.4458 29.9106 26.466 29.6142 25.727C29.467 25.36 29.2849 25.0019 29.0505 24.7117C28.8212 24.4278 28.4561 24.1063 27.9347 24.0386C26.1654 23.8089 23.5908 23.9962 21.2803 24.1642C21.0313 24.1823 20.7854 24.2002 20.544 24.2173C19.267 24.3078 18.098 24.3796 17.1587 24.3718C16.6894 24.3679 16.3044 24.3441 16.0077 24.2997C15.8606 24.2777 15.7483 24.2525 15.6662 24.2276C15.5815 24.2019 15.5506 24.183 15.5523 24.1841C15.5239 24.1662 15.396 24.0638 15.3282 23.621C15.2624 23.1917 15.2826 22.6119 15.378 21.9226C15.547 20.7006 15.9166 19.3568 16.2108 18.2871C16.2478 18.1523 16.2837 18.0219 16.3178 17.8966C16.8516 15.9367 17.9023 14.4441 19.4755 13.3681C20.1588 12.9007 21.5078 12.5387 23.0109 12.3062C24.4622 12.0817 25.8566 12.0058 26.4716 12.0058C27.1972 12.0058 27.6185 11.4459 27.7944 11.1688C28.0142 10.8226 28.1861 10.3864 28.3231 9.94214C28.6016 9.03931 28.8047 7.87475 28.9086 6.72924C29.0121 5.58667 29.0234 4.39324 28.885 3.43734C28.8169 2.96627 28.7035 2.48677 28.5052 2.0877C28.3156 1.70621 27.9394 1.19327 27.262 1.08488C26.7383 1.00111 25.6027 0.975143 24.202 1.02664C22.7693 1.07932 20.9763 1.21644 19.0993 1.48695C17.2254 1.75702 15.2458 2.16317 13.4494 2.76105C11.6673 3.35421 9.98738 4.16128 8.78121 5.27646Z" stroke="black" stroke-width="2"/>
<path d="M40.7225 5.29505L40.7221 5.29546C36.5339 9.38766 34.5222 15.3867 34.5222 23.1091C34.5222 25.5044 34.2561 28.4874 33.9767 31.6196C33.8199 33.3769 33.6589 35.1811 33.5384 36.955C33.3733 39.3858 33.2874 41.7424 33.4149 43.7513C33.5395 45.7143 33.8752 47.5321 34.6943 48.7412C34.9363 49.0985 35.3101 49.2845 35.5625 49.3871C35.8492 49.5036 36.1851 49.5916 36.5376 49.6616C37.2466 49.8025 38.1593 49.8968 39.1857 49.9584C41.2468 50.0823 43.8949 50.0815 46.5721 50.0119C51.8926 49.8736 57.5156 49.4578 58.9976 49.1609C59.492 49.0619 59.8476 48.7527 60.0873 48.4526C60.3286 48.1503 60.5153 47.781 60.6655 47.3992C60.9668 46.6333 61.1924 45.6311 61.3619 44.5169C61.7032 42.2744 61.8468 39.3731 61.8212 36.5068C61.7956 33.6395 61.6 30.7577 61.2465 28.5517C61.071 27.4559 60.8493 26.4796 60.5698 25.7441C60.4312 25.3793 60.2596 25.0226 60.0375 24.7324C59.8237 24.4529 59.4664 24.1121 58.937 24.0396C57.2493 23.8082 54.7982 23.9965 52.6126 24.1644C52.3762 24.1826 52.1428 24.2005 51.9139 24.2176C50.7037 24.3082 49.6002 24.3796 48.7153 24.3718C48.2732 24.3679 47.9141 24.3442 47.6398 24.3009C47.504 24.2795 47.4026 24.2553 47.3304 24.2322C47.2685 24.2124 47.2425 24.1979 47.24 24.1966C47.2207 24.1827 47.0982 24.0753 47.0334 23.6288C46.97 23.1923 46.9899 22.6067 47.0805 21.9155C47.2411 20.6901 47.592 19.3433 47.8706 18.274C47.9057 18.1392 47.9397 18.0088 47.972 17.8836C48.4806 15.9124 49.4796 14.4221 50.9598 13.3535C51.593 12.8963 52.8534 12.537 54.2749 12.3049C55.6447 12.0813 56.9601 12.0058 57.5372 12.0058C57.9191 12.0058 58.2164 11.8388 58.4123 11.6744C58.6033 11.5142 58.744 11.3203 58.8475 11.1482C59.0547 10.8037 59.2165 10.37 59.3458 9.92788C59.6085 9.02868 59.8005 7.86755 59.8987 6.72453C59.9966 5.58418 60.007 4.39522 59.8767 3.44474C59.8125 2.97663 59.706 2.50181 59.5201 2.10678C59.3476 1.74045 58.9874 1.20191 58.3028 1.08629C57.7953 1.00059 56.7099 0.975224 55.383 1.02672C54.0224 1.07952 52.3199 1.21695 50.5376 1.4881C48.7583 1.75878 46.8768 2.1661 45.1681 2.76641C43.4722 3.3622 41.8714 4.17379 40.7225 5.29505Z" stroke="black" stroke-width="2"/>
</svg>
