<svg xmlns="http://www.w3.org/2000/svg" width="20" height="21" fill="none"><path fill="#000" fill-rule="evenodd" d="M2.627.458c0 .015.01.029.026.03l8.06 1.032.098.012a.5.5 0 0 1 .32.175l.062.075 8.356 9.958.16.192a.5.5 0 0 1-.06.704l-.192.161-4.022 3.375-.575.482-.574.482-4.022 3.374-.191.161a.5.5 0 0 1-.705-.061l-.16-.192L.85 10.459l-.062-.075a.5.5 0 0 1-.117-.345l.005-.097.384-8.117a.03.03 0 0 0-.026-.031.03.03 0 0 1-.026-.034l.087-.684.033-.69A.03.03 0 0 1 1.16.359a.03.03 0 0 0 .032-.026.03.03 0 0 1 .033-.026l.684.088.69.032a.03.03 0 0 1 .028.032zM2.53 2.529a.5.5 0 0 1 .563-.472l6.947.889a.5.5 0 0 1 .32.174l7.238 8.627a.5.5 0 0 1-.062.704l-3.064 2.572-.575.482-.574.482-3.064 2.57a.5.5 0 0 1-.705-.06L2.315 9.87a.5.5 0 0 1-.117-.345l.331-6.996zm5.743 6.273A2 2 0 1 0 5.7 5.737a2 2 0 0 0 2.57 3.065z" clip-rule="evenodd"/></svg>