<svg xmlns="http://www.w3.org/2000/svg" width="17" height="20" fill="none"><path fill="#000" fill-rule="evenodd" d="m3.493 4.997 4.981 3.345 4.992-3.328-4.98-3.346-4.993 3.329zm-2.077-.282c-.23.153-.23.402 0 .556l6.64 4.46c.23.154.602.155.831.002l6.657-4.438c.23-.153.23-.402 0-.556L8.905.28a.807.807 0 0 0-.832-.002L1.416 4.715zm8.832 6.945v6l4.992-3.328v-6l-4.992 3.328zm-.832-.945c-.23.153-.416.501-.416.777v8c0 .276.186.376.416.223l6.656-4.438c.23-.153.416-.5.416-.777v-8c0-.276-.186-.376-.416-.223l-6.656 4.438zm-8.168 3.617v-6L6.24 11.66v6l-4.992-3.328zM0 6.5c0-.276.186-.376.416-.223l6.656 4.438c.23.153.416.501.416.777v8c0 .276-.186.376-.416.223L.416 15.277A1.043 1.043 0 0 1 0 14.5v-8z" clip-rule="evenodd"/></svg>