<svg xmlns="http://www.w3.org/2000/svg" xmlns:xlink="http://www.w3.org/1999/xlink" width="119" height="119"><defs><linearGradient id="b" x1="0%" x2="100%" y1="50%" y2="50%"><stop offset="0%" stop-color="#664AD0"/><stop offset="100%" stop-color="#5598FB"/></linearGradient><linearGradient id="d" x1="0%" x2="99.908%" y1="50%" y2="50%"><stop offset="0%" stop-color="#659BFF"/><stop offset="99.908%" stop-color="#00DBFF"/></linearGradient><linearGradient id="e" x1="0%" x2="99.539%" y1="50%" y2="50%"><stop offset="0%" stop-color="#6C2CC0"/><stop offset="99.908%" stop-color="#5E3BBD"/></linearGradient><linearGradient id="f" x1="0%" x2="99.355%" y1="50%" y2="50%"><stop offset="0%" stop-color="#6C2CC0"/><stop offset="99.908%" stop-color="#5B66DB"/></linearGradient><linearGradient id="g" x1=".881%" x2="98.443%" y1="50%" y2="50%"><stop offset="0%" stop-color="#4F86D0"/><stop offset="99.908%" stop-color="#45AFFF"/></linearGradient><linearGradient id="h" x1="0%" x2="99.723%" y1="50%" y2="50%"><stop offset="0%" stop-color="#7057D2"/><stop offset="99.908%" stop-color="#706EE7"/></linearGradient><rect id="a" width="119" height="119" x="0" y="0" rx="30"/></defs><g fill="none" fill-rule="evenodd"><mask id="c" fill="#fff"><use xlink:href="#a"/></mask><use fill="url(#b)" xlink:href="#a"/><g mask="url(#c)"><path fill="url(#d)" d="M163 333.06l128-27.538V202l-128 27.028z" transform="translate(-97 -118)"/><path fill="url(#e)" d="M5 158.06l128-27.538V27L5 54.028z" transform="translate(-97 -118)"/><path fill="url(#f)" d="M0 323.06l112-24.164V208.06L0 231.776z" transform="translate(-97 -118)"/><path fill="url(#g)" d="M202 221l40-8.615V180l-40 8.455z" transform="translate(-97 -118)"/><path fill="url(#h)" d="M131 131.06l128-27.538V0L131 27.028z" transform="translate(-97 -118)"/><path fill="#FFF" d="M55.523 46.846c0-3 2.47-4.154 6.559-4.154 5.864 0 13.272 1.77 19.137 4.923V29.538C74.814 27 68.487 26 62.082 26 46.417 26 36 34.154 36 47.77c0 21.23 29.323 17.845 29.323 27 0 3.538-3.087 4.692-7.408 4.692-6.405 0-14.584-2.616-21.066-6.154v18.307C44.025 94.692 51.279 96 57.915 96 73.965 96 85 88.077 85 74.308c-.077-22.923-29.477-18.846-29.477-27.462z"/></g></g></svg>